<svg xmlns="http://www.w3.org/2000/svg" width="512" height="512" viewBox="0 0 512 512" role="img" aria-label="EasyShut D3: Łuki bliżej koła"><title>EasyShut D3: Łuki bliżej koła</title><g fill="none" stroke="#fff" stroke-width="32" stroke-linecap="round" stroke-linejoin="round"><path data-letter="E-contour" d="M 432,296 A 176,176 0 0 1 80,296"/><path data-letter="E-middle-arm" d="M 256,472 L 256,307"/><path data-letter="S" d="M 182.78374,150.53142 C 182.0204,150.58336 181.25604,150.65035 180.49116,150.73235 C 179.72629,150.81436 178.9609,150.91137 178.19551,151.02333 C 177.43012,151.13529 176.66473,151.26219 175.89986,151.40395 C 175.13499,151.54572 174.37063,151.70234 173.6073,151.87372 C 172.84397,152.04509 172.08166,152.23123 171.3209,152.43199 C 170.56013,152.63275 169.8009,152.84814 169.04372,153.07802 C 168.28654,153.3079 167.53141,153.55226 166.77883,153.81094 C 166.02625,154.06963 165.27623,154.34263 164.52926,154.62977 C 163.78229,154.91692 163.03838,155.2182 162.29802,155.53342 C 161.55767,155.84864 160.82087,156.17779 160.08812,156.52066 C 159.35537,156.86353 158.62667,157.22012 157.90251,157.59018 C 157.17835,157.96024 156.45872,158.34378 155.74412,158.74054 C 155.02952,159.1373 154.31994,159.54728 153.61586,159.9702 C 152.91178,160.39312 152.21319,160.82898 151.52057,161.2775 C 150.82795,161.72602 150.1413,162.18719 149.46107,162.6607 C 148.78084,163.13421 148.10704,163.62007 147.44012,164.11794 C 146.7732,164.61581 146.11315,165.1257 145.46043,165.64726 C 144.80771,166.16882 144.1623,166.70206 143.52465,167.24662 C 142.887,167.79117 142.25711,168.34704 141.63539,168.91386 C 141.01367,169.48068 140.40013,170.05844 139.79517,170.64675 C 139.19021,171.23507 138.59385,171.83395 138.00647,172.44298 C 137.41909,173.05201 136.84069,173.67119 136.27168,174.30011 C 135.70266,174.92904 135.14302,175.5677 134.59313,176.21568 C 134.04324,176.86366 133.5031,177.52094 132.97307,178.1871 C 132.44304,178.85326 131.92313,179.52829 131.41368,180.21174 C 130.90423,180.89518 130.40524,181.58705 129.91704,182.28687 C 129.42885,182.98669 128.95145,183.69446 128.48517,184.40971 C 128.01889,185.12497 127.56373,185.8477 127.11999,186.57743 C 126.67625,187.30715 126.24393,188.04387 125.82332,188.7871 C 125.40271,189.53032 124.99382,190.28004 124.59691,191.03576 C 124.2,191.79148 123.81508,192.5532 123.4424,193.3204 C 123.06972,194.08761 122.70928,194.8603 122.36133,195.63796 C 122.01339,196.41562 121.67792,197.19824 121.35517,197.98532 C 121.03242,198.77239 120.72238,199.5639 120.42526,200.35933 C 120.12814,201.15476 119.84393,201.9541 119.57284,202.75682 C 119.30175,203.55954 119.04376,204.36563 118.79906,205.17456 C 118.55436,205.9835 118.32294,206.79526 118.10496,207.60932 C 117.88698,208.42338 117.68244,209.23973 117.49147,210.05782 C 117.3005,210.87592 117.12311,211.69576 116.95941,212.51679 C 116.79571,213.33782 116.64571,214.16005 116.5095,214.98292 C 116.37329,215.80579 116.25087,216.62931 116.14233,217.45291 C 116.03379,218.27651 115.93913,219.10021 115.85841,219.92344 C 115.77768,220.74667 115.7109,221.56944 115.65811,222.3912 C 115.60531,223.21296 115.5665,224.0337 115.54169,224.85288 C 115.51689,225.67206 115.5061,226.48967 115.50933,227.30518 C 115.51256,228.12068 115.5298,228.93407 115.56106,229.7448 C 115.59231,230.55553 115.63757,231.36361 115.6968,232.16848 C 115.75604,232.97335 115.82925,233.77503 115.91639,234.57296 C 116.00353,235.3709 116.1046,236.1651 116.21952,236.95503 C 116.33445,237.74495 116.46323,238.53061 116.60579,239.31147 C 116.74835,240.09233 116.90468,240.8684 117.07468,241.63914 C 117.24468,242.40989 117.42835,243.17532 117.62556,243.93492 C 117.82277,244.69451 118.03353,245.44828 118.25769,246.19571 C 118.48185,246.94314 118.71941,247.68423 118.97022,248.41849 C 119.22103,249.15275 119.48509,249.88017 119.76221,250.60028 C 120.03933,251.32038 120.32951,252.03317 120.63257,252.73815 C 120.93564,253.44313 121.25157,254.14032 121.58016,254.82923 C 121.90876,255.51815 122.25001,256.1988 122.6037,256.87072 C 122.95738,257.54265 123.3235,258.20585 123.7018,258.85989 C 124.08011,259.51392 124.4706,260.15878 124.87302,260.79405 C 125.27543,261.42931 125.68977,262.05498 126.11576,262.67062 C 126.54174,263.28626 126.97937,263.89188 127.42836,264.48708 C 127.87735,265.08228 128.33768,265.66704 128.80907,266.24099 C 129.28045,266.81494 129.76288,267.37808 130.25602,267.93001 C 130.74917,268.48194 131.25304,269.02268 131.76729,269.55186 C 132.28154,270.08104 132.80618,270.59866 133.34084,271.10437 C 133.87551,271.61009 134.4202,272.10389 134.97456,272.58546 C 135.52892,273.06703 136.09295,273.53636 136.66627,273.99314 C 137.23958,274.44992 137.82218,274.89415 138.41368,275.32552 C 139.00518,275.7569 139.60557,276.17543 140.21446,276.58082 C 140.82335,276.98622 141.44073,277.37848 142.0662,277.75735 C 142.69166,278.13622 143.3252,278.5017 143.9664,278.85354 C 144.6076,279.20537 145.25645,279.54357 145.91252,279.8679 C 146.56859,280.19223 147.23188,280.5027 147.90195,280.79909 C 148.57202,281.09548 149.24886,281.3778 149.93202,281.64585 C 150.61518,281.91391 151.30467,282.1677 152.00001,282.40705 C 152.69535,282.64641 153.39655,282.87133 154.10314,283.08167 C 154.80973,283.29201 155.52171,283.48776 156.2386,283.6688 C 156.95548,283.84984 157.67728,284.01616 158.40351,284.16765 C 159.12973,284.31915 159.86038,284.45581 160.59497,284.57756 C 161.32956,284.69931 162.06809,284.80614 162.81005,284.89797 C 163.55202,284.98981 164.29743,285.06666 165.04578,285.12846 C 165.79413,285.19027 166.54542,285.23703 167.29915,285.26872 C 168.05288,285.30041 168.80904,285.31702 169.56714,285.31855 C 170.32523,285.32008 171.08526,285.30653 171.84671,285.2779 C 172.60816,285.24927 173.37102,285.20556 174.1348,285.14681 C 174.89858,285.08805 175.66326,285.01426 176.42835,284.92546 C 177.19343,284.83666 177.95891,284.73287 178.72427,284.61415 C 179.48963,284.49543 180.25487,284.36178 181.01949,284.2133 C 181.7841,284.06481 182.54808,283.90149 183.31092,283.72344 C 184.07376,283.54539 184.83546,283.35261 185.5955,283.14523 C 186.35555,282.93785 187.11394,282.71588 187.87016,282.47945 C 188.62639,282.24302 189.38046,281.99214 190.13185,281.72699 C 190.88325,281.46183 191.63198,281.18239 192.37754,280.88885 C 193.1231,280.59532 193.86548,280.28769 194.60421,279.96617 C 195.34293,279.64466 196.07798,279.30925 196.80887,278.96018 C 197.53976,278.61112 198.26649,278.24839 198.98857,277.87223 C 199.71065,277.49608 200.42809,277.10651 201.14039,276.70378 C 201.85269,276.30106 202.55987,275.88517 203.26144,275.4564 C 203.96301,275.02764 204.65897,274.58599 205.34887,274.13176 C 206.03876,273.67753 206.72258,273.21072 207.39988,272.73163 C 208.07717,272.25255 208.74794,271.7612 209.41173,271.2579 C 210.07551,270.75461 210.73232,270.23937 211.38171,269.71254 C 212.03109,269.18571 212.67306,268.64729 213.30718,268.09763 C 213.9413,267.54797 214.56756,266.98707 215.18556,266.41532 C 215.80356,265.84357 216.41328,265.26096 217.01433,264.66789 C 217.61538,264.07481 218.20774,263.47127 218.79104,262.85766 C 219.37433,262.24405 219.94854,261.62038 220.51329,260.98707 C 221.07805,260.35376 221.63334,259.7108 222.1788,259.05863 C 222.72425,258.40647 223.25988,257.74508 223.78531,257.07493 C 224.31074,256.40478 224.82597,255.72586 225.33067,255.03862 C 225.83537,254.35139 226.32953,253.65584 226.81282,252.95245 C 227.38365,252.12163 227.95449,251.29082 228.52532,250.46001 C 229.09615,249.62919 229.66699,248.79838 230.23782,247.96757 C 230.80866,247.13676 231.37949,246.30594 231.95032,245.47513 C 232.52116,244.64432 233.09199,243.81351 233.66283,242.98269 C 234.23366,242.15188 234.80449,241.32107 235.37533,240.49026 C 235.94616,239.65944 236.517,238.82863 237.08783,237.99782 C 237.65866,237.16701 238.2295,236.33619 238.80033,235.50538 C 239.37117,234.67457 239.942,233.84375 240.51283,233.01294 C 241.08367,232.18213 241.6545,231.35132 242.22534,230.5205 C 242.79617,229.68969 243.367,228.85888 243.93784,228.02807 C 244.50867,227.19725 245.07951,226.36644 245.65034,225.53563 C 246.22117,224.70482 246.79201,223.874 247.36284,223.04319 C 247.93368,222.21238 248.50451,221.38157 249.07534,220.55075 C 249.64618,219.71994 250.21701,218.88913 250.78785,218.05831 C 251.35868,217.2275 251.92951,216.39669 252.50035,215.56588 C 253.07118,214.73506 253.64202,213.90425 254.21285,213.07344 C 254.78368,212.24263 255.35452,211.41181 255.92535,210.581 C 256.49619,209.75019 257.06702,208.91938 257.63785,208.08856 C 258.20869,207.25775 258.77952,206.42694 259.35036,205.59613 C 259.92119,204.76531 260.49202,203.9345 261.06286,203.10369 C 261.63369,202.27288 262.20453,201.44206 262.77536,200.61125 C 263.34619,199.78044 263.91703,198.94962 264.48786,198.11881 C 265.0587,197.288 265.62953,196.45719 266.20036,195.62637 C 266.7712,194.79556 267.34203,193.96475 267.91287,193.13394 C 268.4837,192.30312 269.05453,191.47231 269.62537,190.6415 C 270.1962,189.81069 270.76704,188.97987 271.33787,188.14906 C 271.9087,187.31825 272.47954,186.48744 273.05037,185.65662 C 273.62121,184.82581 274.19204,183.995 274.76287,183.16418 C 275.33371,182.33337 275.90454,181.50256 276.47538,180.67175 C 277.04621,179.84093 277.61704,179.01012 278.18788,178.17931 C 278.75871,177.3485 279.32955,176.51768 279.90038,175.68687 C 280.47121,174.85606 281.04205,174.02525 281.61288,173.19443 C 282.03179,172.58474 282.46209,171.98479 282.90348,171.39497 C 283.34488,170.80516 283.79738,170.22548 284.26069,169.65631 C 284.724,169.08715 285.19812,168.5285 285.68274,167.98074 C 286.16735,167.43297 286.66246,166.89609 287.16775,166.37044 C 287.67303,165.84479 288.18849,165.33037 288.71379,164.82752 C 289.23908,164.32467 289.77421,163.83339 290.31883,163.354 C 290.86345,162.87461 291.41755,162.40711 291.98078,161.95181 C 292.54401,161.49651 293.11636,161.0534 293.69746,160.62278 C 294.27855,160.19216 294.8684,159.77403 295.46661,159.36866 C 296.06482,158.96329 296.6714,158.57068 297.28594,158.19108 C 297.90048,157.81149 298.52298,157.44491 299.15305,157.09159 C 299.78311,156.73827 300.42074,156.3982 301.0655,156.07162 C 301.71027,155.74504 302.36217,155.43193 303.02079,155.13251 C 303.67942,154.83309 304.34475,154.54736 305.01637,154.27549 C 305.68798,154.00363 306.36588,153.74563 307.04961,153.50168 C 307.73334,153.25773 308.42291,153.02782 309.11786,152.81209 C 309.81281,152.59637 310.51315,152.39484 311.21841,152.20763 C 311.92368,152.02042 312.63386,151.84754 313.34852,151.68909 C 314.06317,151.53063 314.78228,151.38662 315.50539,151.25713 C 316.22849,151.12765 316.95559,151.01269 317.6862,150.91234 C 318.41681,150.81199 319.15093,150.72625 319.8881,150.65516 C 320.62526,150.58408 321.36545,150.52766 322.1082,150.48593 C 322.85095,150.44421 323.59625,150.41718 324.34361,150.40487 C 325.09097,150.39256 325.84039,150.39496 326.59139,150.41208 C 327.34239,150.4292 328.09496,150.46103 328.84861,150.50756 C 329.60226,150.55409 330.35699,150.61531 331.1123,150.69118 C 331.86762,150.76705 332.62352,150.85758 333.37951,150.9627 C 334.13551,151.06782 334.8916,151.18754 335.64728,151.32177 C 336.40296,151.456 337.15824,151.60474 337.91262,151.76791 C 338.66701,151.93107 339.42049,152.10866 340.17259,152.30054 C 340.92468,152.49243 341.67539,152.69861 342.42421,152.91897 C 343.17304,153.13932 343.91998,153.37385 344.66455,153.62238 C 345.40912,153.87092 346.15132,154.13347 346.89067,154.40986 C 347.63002,154.68625 348.36651,154.97649 349.09966,155.28037 C 349.83281,155.58426 350.56262,155.9018 351.28862,156.23278 C 352.01462,156.56376 352.73681,156.90819 353.4547,157.26583 C 354.1726,157.62348 354.8862,157.99434 355.59506,158.37819 C 356.30391,158.76203 357.00801,159.15884 357.70689,159.56838 C 358.40577,159.97791 359.09944,160.40016 359.78744,160.83485 C 360.47543,161.26955 361.15776,161.71668 361.83397,162.17596 C 362.51018,162.63524 363.18028,163.10666 363.84382,163.58993 C 364.50736,164.0732 365.16435,164.5683 365.81435,165.07492 C 366.46435,165.58154 367.10737,166.09968 367.74298,166.62899 C 368.3786,167.1583 369.0068,167.69879 369.6272,168.2501 C 370.24759,168.80141 370.86016,169.36355 371.46452,169.93614 C 372.06888,170.50873 372.66502,171.09177 373.25256,171.68489 C 373.84009,172.278 374.41902,172.88119 374.98896,173.49406 C 375.5589,174.10693 376.11986,174.72948 376.67146,175.3613 C 377.22306,175.99311 377.76531,176.6342 378.29785,177.28415 C 378.83039,177.93409 379.35323,178.59288 379.86601,179.26009 C 380.37879,179.92731 380.88153,180.60294 381.37388,181.28655 C 381.86624,181.97017 382.34821,182.66176 382.8195,183.36088 C 383.29078,184.05999 383.75137,184.76664 384.20096,185.48034 C 384.65055,186.19405 385.08915,186.91482 385.51646,187.64218 C 385.94377,188.36955 386.35981,189.1035 386.76428,189.84357 C 387.16876,190.58363 387.56168,191.32981 387.94279,192.08161 C 388.3239,192.83341 388.6932,193.59084 389.05044,194.35339 C 389.40768,195.11594 389.75287,195.88362 390.08578,196.65593 C 390.41869,197.42824 390.73933,198.20517 391.04747,198.98622 C 391.35561,199.76726 391.65126,200.55243 391.93423,201.3412 C 392.2172,202.12997 392.48749,202.92234 392.74492,203.7178 C 393.00234,204.51325 393.24691,205.3118 393.47846,206.1129 C 393.71001,206.914 393.92854,207.71767 394.1339,208.52337 C 394.33927,209.32908 394.53147,210.13682 394.71039,210.94606 C 394.8893,211.75531 395.05493,212.56607 395.20716,213.3778 C 395.35939,214.18953 395.49822,215.00224 395.62356,215.8154 C 395.74891,216.62856 395.86077,217.44216 395.95906,218.25567 C 396.05736,219.06919 396.1421,219.88261 396.21322,220.69542 C 396.28434,221.50823 396.34184,222.32042 396.38569,223.13146 C 396.42954,223.9425 396.45973,224.75239 396.47626,225.5606 C 396.49278,226.3688 396.49563,227.17533 396.4848,227.97965 C 396.47397,228.78397 396.44947,229.58608 396.41131,230.38546 C 396.37314,231.18484 396.32132,231.98149 396.25587,232.77488 C 396.19043,233.56827 396.11135,234.3584 396.01871,235.14477 C 395.92606,235.93114 395.81984,236.71373 395.70011,237.49204 C 395.58039,238.27035 395.44716,239.04438 395.30051,239.81361 C 395.15387,240.58285 394.9938,241.3473 394.82043,242.10646 C 394.64705,242.86561 394.46036,243.61948 394.26048,244.36756 C 394.0606,245.11565 393.84753,245.85795 393.62141,246.59398 C 393.39529,247.33001 393.15612,248.05977 392.90406,248.78279 C 392.65199,249.5058 392.38703,250.22207 392.10935,250.93112 C 391.83167,251.64018 391.54127,252.34201 391.23834,253.03618 C 390.93541,253.73034 390.61994,254.41683 390.29216,255.09519 C 389.96437,255.77356 389.62426,256.4438 389.27204,257.10548 C 388.91983,257.76715 388.55551,258.42027 388.17933,259.0644 C 387.80315,259.70852 387.41511,260.34366 387.01545,260.96939 C 386.6158,261.59512 386.20454,262.21145 385.78194,262.81796 C 385.35933,263.42448 384.92539,264.02119 384.48039,264.6077 C 384.03539,265.19421 383.57933,265.77052 383.11251,266.33625 C 382.6457,266.90199 382.16813,267.45715 381.68011,268.00136 C 381.19209,268.54558 380.69362,269.07886 380.18504,269.60085 C 379.67645,270.12284 379.15775,270.63354 378.62927,271.13262 C 378.10078,271.6317 377.56252,272.11916 377.01483,272.59468 C 376.46713,273.07019 375.91001,273.53377 375.34383,273.98509 C 374.77765,274.43642 374.2024,274.87551 373.61847,275.30206 C 373.03454,275.72861 372.44191,276.14263 371.841,276.54385 C 371.24008,276.94506 370.63086,277.33348 370.01374,277.70883 C 369.39662,278.08419 368.7716,278.44649 368.13909,278.79549 C 367.50658,279.1445 366.86657,279.48021 366.2195,279.8024 C 365.57242,280.1246 364.91827,280.43328 364.25748,280.72825 C 363.59669,281.02321 362.92925,281.30446 362.25561,281.57181 C 361.58196,281.83916 360.90211,282.09261 360.21649,282.332 C 359.53087,282.57138 358.83949,282.7967 358.1428,283.0078 C 357.44611,283.21891 356.74411,283.4158 356.03726,283.59835 C 355.33041,283.7809 354.6187,283.94911 353.90261,284.10286 C 353.18652,284.25662 352.46605,284.39592 351.74166,284.52068 C 351.01727,284.64544 350.28896,284.75565 349.55722,284.85125 C 348.82548,284.94685 348.0903,285.02784 347.35217,285.09416 C 346.61403,285.16047 345.87294,285.21212 345.12938,285.24907 C 344.38581,285.28601 343.63978,285.30825 342.89176,285.31578 C 342.14374,285.32331 341.39374,285.31612 340.64224,285.29422 C 339.89075,285.27231 339.13776,285.2357 338.38377,285.1844"/><path data-part="power-bar" d="M 256,100 L 256,140"/></g></svg>
