<svg xmlns="http://www.w3.org/2000/svg" viewBox="0 0 512 512" width="512" height="512" role="img" aria-label="EasyShut: Czytelny"><title>EasyShut — Czytelny</title><g fill="none" stroke="#ffffff" stroke-width="29" stroke-linecap="round" stroke-linejoin="round"><path d="M 207,133 C 146,149 98,210 98,279 C 98,359 156,417 226,425"/><path d="M 106,229 L 217,229"/><path d="M 101,310 L 216,310"/><path d="M 406,247 C 391,191 349,147 309,137 C 280,153 262,181 262,215 C 262,251 293,270 338,285 C 383,300 405,319 401,351 C 396,390 343,419 279,425"/><path d="M 256,64 L 256,126"/></g></svg>
