<svg xmlns="http://www.w3.org/2000/svg" viewBox="0 0 512 512" width="512" height="512" role="img" aria-label="EasyShut: Wyrazisty"><title>EasyShut — Wyrazisty</title><g fill="none" stroke="#ffffff" stroke-width="42" stroke-linecap="round" stroke-linejoin="round"><path d="M 204,137 C 143,148 87,213 87,283 C 87,358 143,418 228,430"/><path d="M 99,253 L 215,253"/><path d="M 104,340 L 225,340"/><path d="M 418,243 C 397,181 349,143 309,135 C 290,151 272,176 271,207 C 270,240 302,257 345,275 C 391,294 422,315 413,349 C 402,387 343,419 282,430"/><path d="M 256,51 L 256,112"/></g></svg>
